<svg width="20" height="20" viewBox="0 0 20 20" fill="none" xmlns="http://www.w3.org/2000/svg">
<g clip-path="url(#clip0_351_440)">
<path d="M18.1025 15.5756C17.8055 16.2617 17.454 16.8932 17.0468 17.4738C16.4916 18.2653 16.0371 18.8131 15.6868 19.1173C15.1438 19.6167 14.562 19.8725 13.939 19.887C13.4917 19.887 12.9523 19.7598 12.3245 19.5016C11.6946 19.2446 11.1157 19.1173 10.5864 19.1173C10.0312 19.1173 9.43585 19.2446 8.79902 19.5016C8.16122 19.7598 7.64742 19.8943 7.25458 19.9076C6.65715 19.9331 6.06165 19.6701 5.46725 19.1173C5.08786 18.7864 4.61333 18.2192 4.04487 17.4156C3.43495 16.5574 2.93351 15.5623 2.54067 14.4278C2.11996 13.2024 1.90906 12.0157 1.90906 10.8669C1.90906 9.55097 2.19341 8.41597 2.76297 7.46485C3.21059 6.70087 3.80609 6.09822 4.5514 5.65581C5.29671 5.2134 6.10201 4.98795 6.96926 4.97353C7.44379 4.97353 8.06607 5.12031 8.83938 5.40879C9.61051 5.69824 10.1056 5.84502 10.3227 5.84502C10.485 5.84502 11.0351 5.67339 11.9675 5.33122C12.8493 5.01389 13.5935 4.8825 14.2032 4.93426C15.8553 5.06759 17.0964 5.71884 17.9219 6.89214C16.4443 7.78738 15.7135 9.04129 15.728 10.6498C15.7413 11.9028 16.1959 12.9454 17.0892 13.7733C17.494 14.1575 17.9461 14.4545 18.4491 14.6654C18.34 14.9817 18.2249 15.2847 18.1025 15.5756ZM14.3135 0.665781C14.3135 1.64782 13.9547 2.56475 13.2396 3.41346C12.3766 4.4224 11.3328 5.00541 10.2008 4.91341C10.1864 4.7956 10.178 4.6716 10.178 4.5413C10.178 3.59854 10.5884 2.5896 11.3172 1.76466C11.6811 1.34697 12.1439 0.999674 12.7051 0.722627C13.2651 0.449714 13.7947 0.298787 14.2929 0.272942C14.3074 0.404225 14.3135 0.535517 14.3135 0.665768V0.665781Z" fill="white"/>
</g>
<defs>
<clipPath id="clip0_351_440">
<rect width="19.6364" height="19.6364" fill="white" transform="translate(0.272705 0.272728)"/>
</clipPath>
</defs>
</svg>
