<svg width="18" height="18" viewBox="0 0 18 18" fill="none" xmlns="http://www.w3.org/2000/svg">
<g clip-path="url(#clip0_351_447)">
<path d="M16.8677 7.83003L16.7851 7.47975H9.17166V10.7021H13.7206C13.2483 12.9448 11.0568 14.1253 9.26663 14.1253C7.96411 14.1253 6.5911 13.5774 5.68233 12.6968C5.20287 12.2247 4.82122 11.6627 4.55923 11.043C4.29724 10.4232 4.16006 9.7579 4.15555 9.08507C4.15555 7.72776 4.76553 6.37009 5.65311 5.47703C6.54069 4.58397 7.8812 4.08429 9.21403 4.08429C10.7404 4.08429 11.8344 4.89481 12.2435 5.26445L14.5333 2.98669C13.8616 2.39643 12.0163 0.909092 9.14025 0.909092C6.92129 0.909092 4.79366 1.75905 3.23838 3.30921C1.70356 4.83563 0.909119 7.0429 0.909119 9.09091C0.909119 11.1389 1.66082 13.2359 3.14816 14.7744C4.73741 16.4151 6.98814 17.2727 9.30571 17.2727C11.4144 17.2727 13.4131 16.4465 14.8376 14.9475C16.238 13.4718 16.9623 11.43 16.9623 9.28961C16.9623 8.38852 16.8717 7.85341 16.8677 7.83003Z" fill="white"/>
</g>
<defs>
<clipPath id="clip0_351_447">
<rect width="16.3636" height="16.3636" fill="white" transform="translate(0.909119 0.909092)"/>
</clipPath>
</defs>
</svg>
