<svg width="25" height="27" viewBox="0 0 25 27" fill="none" xmlns="http://www.w3.org/2000/svg">
<path fill-rule="evenodd" clip-rule="evenodd" d="M6.53064 7.34399C4.87379 7.34399 3.53064 8.68714 3.53064 10.344V18.344C3.53064 20.0008 4.87379 21.344 6.53064 21.344H18.5306C20.1875 21.344 21.5306 20.0008 21.5306 18.344V10.344C21.5306 8.68714 20.1875 7.34399 18.5306 7.34399H6.53064ZM8.59286 11.0357C8.20473 10.7339 7.63837 10.795 7.32786 11.1724C7.01735 11.5497 7.08028 12.1004 7.46841 12.4023L11.9684 15.9023L12.5306 16.3395L13.0929 15.9023L17.5929 12.4023C17.981 12.1004 18.0439 11.5497 17.7334 11.1724C17.4229 10.795 16.8566 10.7339 16.4684 11.0357L12.5306 14.0984L8.59286 11.0357Z" fill="white"/>
</svg>
