<svg width="20" height="20" viewBox="0 0 20 20" fill="none" xmlns="http://www.w3.org/2000/svg">
<path fill-rule="evenodd" clip-rule="evenodd" d="M6.66663 5.00003C6.66663 3.15908 8.15901 1.66669 9.99996 1.66669C11.8409 1.66669 13.3333 3.15908 13.3333 5.00003V8.33336H11.6666V5.00003C11.6666 4.07955 10.9204 3.33336 9.99996 3.33336C9.07948 3.33336 8.33329 4.07955 8.33329 5.00003V8.33336H6.66663V5.00003Z" fill="white"/>
<path fill-rule="evenodd" clip-rule="evenodd" d="M9.99996 6.6667C6.7783 6.6667 4.16663 9.27837 4.16663 12.5C4.16663 15.7217 6.7783 18.3334 9.99996 18.3334C13.2216 18.3334 15.8333 15.7217 15.8333 12.5C15.8333 9.27837 13.2216 6.6667 9.99996 6.6667ZM9.99996 10.8334C10.4602 10.8334 10.8333 11.2065 10.8333 11.6667V13.3334C10.8333 13.7936 10.4602 14.1667 9.99996 14.1667C9.53972 14.1667 9.16663 13.7936 9.16663 13.3334V11.6667C9.16663 11.2065 9.53972 10.8334 9.99996 10.8334Z" fill="white"/>
</svg>
