<svg width="20" height="20" viewBox="0 0 20 20" fill="none" xmlns="http://www.w3.org/2000/svg">
<path fill-rule="evenodd" clip-rule="evenodd" d="M6.72964 2.54104C6.72964 1.13766 7.8673 0 9.27068 0H10.7293C12.1327 0 13.2704 1.13766 13.2704 2.54104C13.2704 2.74442 13.4106 3.01577 13.7458 3.19782C13.849 3.25384 13.9507 3.31209 14.051 3.37252C14.3853 3.57406 14.6991 3.56113 14.8834 3.45569C16.1072 2.75547 17.6667 3.17332 18.3764 4.39162L19.0809 5.60076C19.792 6.8214 19.3723 8.38766 18.1462 9.08922C17.9684 9.19094 17.8012 9.44965 17.8094 9.83462C17.8105 9.88963 17.8111 9.94475 17.8111 10C17.8111 10.0552 17.8105 10.1104 17.8094 10.1654C17.8012 10.5504 17.9684 10.8091 18.1461 10.9108C19.3723 11.6123 19.7919 13.1786 19.0808 14.3992L18.3764 15.6084C17.6666 16.8267 16.1071 17.2445 14.8834 16.5443C14.6991 16.4389 14.3853 16.4259 14.0509 16.6275C13.9507 16.6879 13.849 16.7462 13.7458 16.8022C13.4106 16.9842 13.2704 17.2556 13.2704 17.459C13.2704 18.8623 12.1327 20 10.7293 20H9.27068C7.8673 20 6.72964 18.8623 6.72964 17.459C6.72964 17.2556 6.58939 16.9842 6.25418 16.8022C6.15103 16.7462 6.0493 16.6879 5.94906 16.6275C5.61475 16.4259 5.30093 16.4389 5.11667 16.5443C3.89287 17.2445 2.33339 16.8267 1.62364 15.6084L0.919198 14.3992C0.20809 13.1786 0.627751 11.6123 1.85389 10.9108C2.03165 10.8091 2.19879 10.5504 2.19065 10.1654C2.18948 10.1104 2.1889 10.0553 2.1889 10C2.1889 9.94476 2.18948 9.88963 2.19065 9.83463C2.19879 9.44966 2.03164 9.19095 1.85387 9.08923C0.627717 8.38767 0.208054 6.82141 0.91917 5.60077L1.62359 4.39163C2.33334 3.17333 3.89284 2.75548 5.11664 3.4557C5.3009 3.56113 5.61474 3.57407 5.94905 3.37253C6.0493 3.3121 6.15103 3.25384 6.25418 3.19782C6.58939 3.01577 6.72964 2.74442 6.72964 2.54104ZM9.27068 2C8.97187 2 8.72964 2.24223 8.72964 2.54104C8.72964 3.64708 8.02417 4.51246 7.20869 4.95535C7.13194 4.99703 7.05623 5.04039 6.98161 5.08537C6.18614 5.5649 5.08414 5.74134 4.12339 5.19163C3.85303 5.03694 3.50851 5.12925 3.35172 5.39839L2.6473 6.60754C2.49527 6.86848 2.58499 7.20332 2.84712 7.3533C3.80943 7.90391 4.20983 8.94868 4.1902 9.87693C4.18934 9.91783 4.1889 9.95886 4.1889 10C4.1889 10.0412 4.18934 10.0822 4.1902 10.1231C4.20984 11.0513 3.80944 12.0961 2.84713 12.6467C2.58502 12.7967 2.49531 13.1315 2.64732 13.3924L3.35177 14.6016C3.50856 14.8708 3.85307 14.9631 4.12342 14.8084C5.08416 14.2587 6.18616 14.4351 6.98162 14.9146C7.05623 14.9596 7.13194 15.003 7.20869 15.0447C8.02417 15.4875 8.72964 16.3529 8.72964 17.459C8.72964 17.7578 8.97187 18 9.27068 18H10.7293C11.0281 18 11.2704 17.7578 11.2704 17.459C11.2704 16.3529 11.9759 15.4875 12.7913 15.0447C12.8681 15.003 12.9438 14.9596 13.0184 14.9146C13.8139 14.4351 14.9159 14.2587 15.8766 14.8084C16.147 14.9631 16.4915 14.8708 16.6483 14.6016L17.3527 13.3924C17.5047 13.1315 17.415 12.7967 17.1529 12.6467C16.1906 12.0961 15.7902 11.0513 15.8098 10.1231C15.8107 10.0822 15.8111 10.0412 15.8111 10C15.8111 9.95885 15.8107 9.91782 15.8098 9.87692C15.7902 8.94867 16.1906 7.9039 17.1529 7.35329C17.415 7.20331 17.5047 6.86848 17.3527 6.60753L16.6483 5.39839C16.4915 5.12924 16.147 5.03693 15.8766 5.19162C14.9159 5.74134 13.8139 5.5649 13.0184 5.08536C12.9438 5.04039 12.8681 4.99703 12.7913 4.95535C11.9759 4.51246 11.2704 3.64708 11.2704 2.54104C11.2704 2.24223 11.0281 2 10.7293 2H9.27068Z" fill="black"/>
</svg>
